M48
;DRILL file {KiCad 4.0.5} date 10/06/17 13:28:14
;FORMAT={-:-/ absolute / metric / decimal}
FMAT,2
METRIC,TZ
T1C1.000
%
G90
G05
M71
T1
X141.732Y-69.85
X144.272Y-69.85
X146.812Y-69.85
X149.352Y-69.85
X151.892Y-69.85
X154.432Y-69.85
X154.432Y-76.454
X154.432Y-78.994
X156.972Y-69.85
X156.972Y-76.454
X156.972Y-78.994
X159.512Y-69.85
X159.512Y-76.454
X159.512Y-78.994
X162.052Y-69.85
X162.052Y-76.454
X162.052Y-78.994
X164.592Y-69.85
X164.592Y-76.454
X164.592Y-78.994
X167.132Y-69.85
X167.132Y-76.454
X167.132Y-78.994
X169.672Y-69.85
X169.672Y-76.454
X169.672Y-78.994
X172.212Y-69.85
X172.212Y-76.454
X172.212Y-78.994
X174.752Y-69.85
X174.752Y-76.454
X174.752Y-78.994
X177.292Y-69.85
X177.292Y-76.454
X177.292Y-78.994
X179.832Y-69.85
X182.372Y-69.85
X184.912Y-69.85
X187.452Y-69.85
X189.992Y-69.85
T0
M30
